<svg xmlns="http://www.w3.org/2000/svg" xmlns:xlink="http://www.w3.org/1999/xlink" width="2000" zoomAndPan="magnify" viewBox="0 0 1500 374.999991" height="500" preserveAspectRatio="xMidYMid meet" version="1.0"><defs><g/></defs><g fill="#ffffff" fill-opacity="1"><g transform="translate(68.404706, 279.727833)"><g><path d="M 98.734375 -38.375 L 98.734375 0 L 75.703125 0 C 59.296875 0 46.503906 -4.015625 37.328125 -12.046875 C 28.148438 -20.078125 23.5625 -33.179688 23.5625 -51.359375 L 23.5625 -110.109375 L 5.5625 -110.109375 L 5.5625 -147.703125 L 23.5625 -147.703125 L 23.5625 -183.703125 L 68.828125 -183.703125 L 68.828125 -147.703125 L 98.46875 -147.703125 L 98.46875 -110.109375 L 68.828125 -110.109375 L 68.828125 -50.828125 C 68.828125 -46.410156 69.882812 -43.226562 72 -41.28125 C 74.113281 -39.34375 77.644531 -38.375 82.59375 -38.375 Z M 98.734375 -38.375 "/></g></g></g><g fill="#ffffff" fill-opacity="1"><g transform="translate(166.609992, 279.727833)"><g><path d="M 39.171875 -163.0625 C 31.234375 -163.0625 24.75 -165.398438 19.71875 -170.078125 C 14.6875 -174.753906 12.171875 -180.53125 12.171875 -187.40625 C 12.171875 -194.46875 14.6875 -200.335938 19.71875 -205.015625 C 24.75 -209.691406 31.234375 -212.03125 39.171875 -212.03125 C 46.941406 -212.03125 53.335938 -209.691406 58.359375 -205.015625 C 63.390625 -200.335938 65.90625 -194.46875 65.90625 -187.40625 C 65.90625 -180.53125 63.390625 -174.753906 58.359375 -170.078125 C 53.335938 -165.398438 46.941406 -163.0625 39.171875 -163.0625 Z M 61.671875 -147.703125 L 61.671875 0 L 16.40625 0 L 16.40625 -147.703125 Z M 61.671875 -147.703125 "/></g></g></g><g fill="#ffffff" fill-opacity="1"><g transform="translate(235.433062, 279.727833)"><g><path d="M 204.875 -149.296875 C 223.226562 -149.296875 237.832031 -143.734375 248.6875 -132.609375 C 259.539062 -121.492188 264.96875 -106.054688 264.96875 -86.296875 L 264.96875 0 L 219.96875 0 L 219.96875 -80.203125 C 219.96875 -89.734375 217.453125 -97.097656 212.421875 -102.296875 C 207.390625 -107.503906 200.460938 -110.109375 191.640625 -110.109375 C 182.816406 -110.109375 175.890625 -107.503906 170.859375 -102.296875 C 165.835938 -97.097656 163.328125 -89.734375 163.328125 -80.203125 L 163.328125 0 L 118.328125 0 L 118.328125 -80.203125 C 118.328125 -89.734375 115.8125 -97.097656 110.78125 -102.296875 C 105.75 -107.503906 98.820312 -110.109375 90 -110.109375 C 81.175781 -110.109375 74.25 -107.503906 69.21875 -102.296875 C 64.1875 -97.097656 61.671875 -89.734375 61.671875 -80.203125 L 61.671875 0 L 16.40625 0 L 16.40625 -147.703125 L 61.671875 -147.703125 L 61.671875 -129.171875 C 66.265625 -135.347656 72.265625 -140.242188 79.671875 -143.859375 C 87.085938 -147.484375 95.472656 -149.296875 104.828125 -149.296875 C 115.941406 -149.296875 125.863281 -146.910156 134.59375 -142.140625 C 143.332031 -137.378906 150.171875 -130.585938 155.109375 -121.765625 C 160.234375 -129.878906 167.207031 -136.492188 176.03125 -141.609375 C 184.851562 -146.734375 194.46875 -149.296875 204.875 -149.296875 Z M 204.875 -149.296875 "/></g></g></g><g fill="#ffffff" fill-opacity="1"><g transform="translate(506.49034, 279.727833)"><g><path d="M 155.640625 -76.234375 C 155.640625 -71.992188 155.375 -67.582031 154.84375 -63 L 52.40625 -63 C 53.113281 -53.820312 56.070312 -46.804688 61.28125 -41.953125 C 66.488281 -37.097656 72.882812 -34.671875 80.46875 -34.671875 C 91.757812 -34.671875 99.613281 -39.4375 104.03125 -48.96875 L 152.203125 -48.96875 C 149.734375 -39.257812 145.273438 -30.523438 138.828125 -22.765625 C 132.390625 -15.003906 124.316406 -8.914062 114.609375 -4.5 C 104.910156 -0.0820312 94.0625 2.125 82.0625 2.125 C 67.59375 2.125 54.707031 -0.960938 43.40625 -7.140625 C 32.113281 -13.316406 23.289062 -22.140625 16.9375 -33.609375 C 10.582031 -45.085938 7.40625 -58.503906 7.40625 -73.859375 C 7.40625 -89.203125 10.535156 -102.609375 16.796875 -114.078125 C 23.066406 -125.554688 31.847656 -134.382812 43.140625 -140.5625 C 54.441406 -146.738281 67.414062 -149.828125 82.0625 -149.828125 C 96.351562 -149.828125 109.054688 -146.828125 120.171875 -140.828125 C 131.285156 -134.828125 139.972656 -126.265625 146.234375 -115.140625 C 152.503906 -104.023438 155.640625 -91.054688 155.640625 -76.234375 Z M 109.328125 -88.140625 C 109.328125 -95.910156 106.675781 -102.085938 101.375 -106.671875 C 96.082031 -111.265625 89.46875 -113.5625 81.53125 -113.5625 C 73.9375 -113.5625 67.535156 -111.351562 62.328125 -106.9375 C 57.128906 -102.53125 53.910156 -96.265625 52.671875 -88.140625 Z M 109.328125 -88.140625 "/></g></g></g><g fill="#ffffff" fill-opacity="1"><g transform="translate(660.283569, 279.727833)"><g><path d="M 61.671875 -126.796875 C 65.910156 -133.671875 72 -139.226562 79.9375 -143.46875 C 87.882812 -147.707031 96.972656 -149.828125 107.203125 -149.828125 C 119.378906 -149.828125 130.40625 -146.738281 140.28125 -140.5625 C 150.164062 -134.382812 157.976562 -125.554688 163.71875 -114.078125 C 169.457031 -102.609375 172.328125 -89.285156 172.328125 -74.109375 C 172.328125 -58.941406 169.457031 -45.578125 163.71875 -34.015625 C 157.976562 -22.453125 150.164062 -13.535156 140.28125 -7.265625 C 130.40625 -1.003906 119.378906 2.125 107.203125 2.125 C 96.796875 2.125 87.707031 0.0507812 79.9375 -4.09375 C 72.175781 -8.25 66.085938 -13.765625 61.671875 -20.640625 L 61.671875 0 L 16.40625 0 L 16.40625 -195.875 L 61.671875 -195.875 Z M 126.265625 -74.109375 C 126.265625 -85.410156 123.128906 -94.28125 116.859375 -100.71875 C 110.597656 -107.15625 102.878906 -110.375 93.703125 -110.375 C 84.703125 -110.375 77.066406 -107.109375 70.796875 -100.578125 C 64.535156 -94.054688 61.40625 -85.148438 61.40625 -73.859375 C 61.40625 -62.554688 64.535156 -53.640625 70.796875 -47.109375 C 77.066406 -40.585938 84.703125 -37.328125 93.703125 -37.328125 C 102.703125 -37.328125 110.378906 -40.632812 116.734375 -47.25 C 123.085938 -53.863281 126.265625 -62.816406 126.265625 -74.109375 Z M 126.265625 -74.109375 "/></g></g></g><g fill="#ffffff" fill-opacity="1"><g transform="translate(830.753223, 279.727833)"><g><path d="M 61.671875 -123.09375 C 66.960938 -131.207031 73.578125 -137.601562 81.515625 -142.28125 C 89.460938 -146.957031 98.289062 -149.296875 108 -149.296875 L 108 -101.375 L 95.5625 -101.375 C 84.257812 -101.375 75.785156 -98.945312 70.140625 -94.09375 C 64.492188 -89.25 61.671875 -80.738281 61.671875 -68.5625 L 61.671875 0 L 16.40625 0 L 16.40625 -147.703125 L 61.671875 -147.703125 Z M 61.671875 -123.09375 "/></g></g></g><g fill="#ffffff" fill-opacity="1"><g transform="translate(934.78195, 279.727833)"><g><path d="M 39.171875 -163.0625 C 31.234375 -163.0625 24.75 -165.398438 19.71875 -170.078125 C 14.6875 -174.753906 12.171875 -180.53125 12.171875 -187.40625 C 12.171875 -194.46875 14.6875 -200.335938 19.71875 -205.015625 C 24.75 -209.691406 31.234375 -212.03125 39.171875 -212.03125 C 46.941406 -212.03125 53.335938 -209.691406 58.359375 -205.015625 C 63.390625 -200.335938 65.90625 -194.46875 65.90625 -187.40625 C 65.90625 -180.53125 63.390625 -174.753906 58.359375 -170.078125 C 53.335938 -165.398438 46.941406 -163.0625 39.171875 -163.0625 Z M 61.671875 -147.703125 L 61.671875 0 L 16.40625 0 L 16.40625 -147.703125 Z M 61.671875 -147.703125 "/></g></g></g><g fill="#ffffff" fill-opacity="1"><g transform="translate(1003.604985, 279.727833)"><g><path d="M 7.40625 -74.109375 C 7.40625 -89.285156 10.273438 -102.609375 16.015625 -114.078125 C 21.753906 -125.554688 29.5625 -134.382812 39.4375 -140.5625 C 49.320312 -146.738281 60.351562 -149.828125 72.53125 -149.828125 C 82.238281 -149.828125 91.101562 -147.796875 99.125 -143.734375 C 107.15625 -139.671875 113.46875 -134.203125 118.0625 -127.328125 L 118.0625 -195.875 L 163.328125 -195.875 L 163.328125 0 L 118.0625 0 L 118.0625 -21.171875 C 113.820312 -14.117188 107.773438 -8.472656 99.921875 -4.234375 C 92.066406 0.00390625 82.9375 2.125 72.53125 2.125 C 60.351562 2.125 49.320312 -1.003906 39.4375 -7.265625 C 29.5625 -13.535156 21.753906 -22.453125 16.015625 -34.015625 C 10.273438 -45.578125 7.40625 -58.941406 7.40625 -74.109375 Z M 118.0625 -73.859375 C 118.0625 -85.148438 114.925781 -94.054688 108.65625 -100.578125 C 102.394531 -107.109375 94.765625 -110.375 85.765625 -110.375 C 76.765625 -110.375 69.128906 -107.15625 62.859375 -100.71875 C 56.597656 -94.28125 53.46875 -85.410156 53.46875 -74.109375 C 53.46875 -62.816406 56.597656 -53.863281 62.859375 -47.25 C 69.128906 -40.632812 76.765625 -37.328125 85.765625 -37.328125 C 94.765625 -37.328125 102.394531 -40.585938 108.65625 -47.109375 C 114.925781 -53.640625 118.0625 -62.554688 118.0625 -73.859375 Z M 118.0625 -73.859375 "/></g></g></g><g fill="#ffffff" fill-opacity="1"><g transform="translate(1174.074638, 279.727833)"><g><path d="M 155.640625 -76.234375 C 155.640625 -71.992188 155.375 -67.582031 154.84375 -63 L 52.40625 -63 C 53.113281 -53.820312 56.070312 -46.804688 61.28125 -41.953125 C 66.488281 -37.097656 72.882812 -34.671875 80.46875 -34.671875 C 91.757812 -34.671875 99.613281 -39.4375 104.03125 -48.96875 L 152.203125 -48.96875 C 149.734375 -39.257812 145.273438 -30.523438 138.828125 -22.765625 C 132.390625 -15.003906 124.316406 -8.914062 114.609375 -4.5 C 104.910156 -0.0820312 94.0625 2.125 82.0625 2.125 C 67.59375 2.125 54.707031 -0.960938 43.40625 -7.140625 C 32.113281 -13.316406 23.289062 -22.140625 16.9375 -33.609375 C 10.582031 -45.085938 7.40625 -58.503906 7.40625 -73.859375 C 7.40625 -89.203125 10.535156 -102.609375 16.796875 -114.078125 C 23.066406 -125.554688 31.847656 -134.382812 43.140625 -140.5625 C 54.441406 -146.738281 67.414062 -149.828125 82.0625 -149.828125 C 96.351562 -149.828125 109.054688 -146.828125 120.171875 -140.828125 C 131.285156 -134.828125 139.972656 -126.265625 146.234375 -115.140625 C 152.503906 -104.023438 155.640625 -91.054688 155.640625 -76.234375 Z M 109.328125 -88.140625 C 109.328125 -95.910156 106.675781 -102.085938 101.375 -106.671875 C 96.082031 -111.265625 89.46875 -113.5625 81.53125 -113.5625 C 73.9375 -113.5625 67.535156 -111.351562 62.328125 -106.9375 C 57.128906 -102.53125 53.910156 -96.265625 52.671875 -88.140625 Z M 109.328125 -88.140625 "/></g></g></g><g fill="#ffffff" fill-opacity="1"><g transform="translate(1335.310276, 279.699251)"><g><path d="M 3.109375 -19.921875 C 3.109375 -24.023438 3.925781 -27.609375 5.5625 -30.671875 C 7.207031 -33.734375 9.488281 -36.109375 12.40625 -37.796875 C 15.332031 -39.492188 18.679688 -40.34375 22.453125 -40.34375 C 27.328125 -40.34375 31.34375 -39.15625 34.5 -36.78125 C 37.664062 -34.414062 39.757812 -31.132812 40.78125 -26.9375 L 33.671875 -26.9375 C 32.992188 -29.351562 31.675781 -31.257812 29.71875 -32.65625 C 27.769531 -34.0625 25.347656 -34.765625 22.453125 -34.765625 C 18.679688 -34.765625 15.632812 -33.472656 13.3125 -30.890625 C 11 -28.304688 9.84375 -24.648438 9.84375 -19.921875 C 9.84375 -15.140625 11 -11.441406 13.3125 -8.828125 C 15.632812 -6.222656 18.679688 -4.921875 22.453125 -4.921875 C 25.347656 -4.921875 27.757812 -5.597656 29.6875 -6.953125 C 31.625 -8.304688 32.953125 -10.238281 33.671875 -12.75 L 40.78125 -12.75 C 39.71875 -8.6875 37.59375 -5.4375 34.40625 -3 C 31.21875 -0.5625 27.234375 0.65625 22.453125 0.65625 C 18.679688 0.65625 15.332031 -0.1875 12.40625 -1.875 C 9.488281 -3.570312 7.207031 -5.960938 5.5625 -9.046875 C 3.925781 -12.140625 3.109375 -15.765625 3.109375 -19.921875 Z M 3.109375 -19.921875 "/></g></g></g><g fill="#ffffff" fill-opacity="1"><g transform="translate(1376.728336, 279.699251)"><g><path d="M 12.171875 -33.234375 C 13.328125 -35.503906 14.976562 -37.265625 17.125 -38.515625 C 19.269531 -39.773438 21.890625 -40.40625 24.984375 -40.40625 L 24.984375 -33.609375 L 23.25 -33.609375 C 15.863281 -33.609375 12.171875 -29.597656 12.171875 -21.578125 L 12.171875 0 L 5.578125 0 L 5.578125 -39.6875 L 12.171875 -39.6875 Z M 12.171875 -33.234375 "/></g></g></g><g fill="#ffffff" fill-opacity="1"><g transform="translate(1401.202422, 279.699251)"><g><path d="M 53.296875 -40.40625 C 56.390625 -40.40625 59.140625 -39.765625 61.546875 -38.484375 C 63.960938 -37.210938 65.867188 -35.296875 67.265625 -32.734375 C 68.671875 -30.171875 69.375 -27.054688 69.375 -23.390625 L 69.375 0 L 62.859375 0 L 62.859375 -22.453125 C 62.859375 -26.410156 61.878906 -29.4375 59.921875 -31.53125 C 57.972656 -33.632812 55.332031 -34.6875 52 -34.6875 C 48.570312 -34.6875 45.84375 -33.585938 43.8125 -31.390625 C 41.789062 -29.191406 40.78125 -26.019531 40.78125 -21.875 L 40.78125 0 L 34.25 0 L 34.25 -22.453125 C 34.25 -26.410156 33.269531 -29.4375 31.3125 -31.53125 C 29.363281 -33.632812 26.722656 -34.6875 23.390625 -34.6875 C 19.960938 -34.6875 17.234375 -33.585938 15.203125 -31.390625 C 13.179688 -29.191406 12.171875 -26.019531 12.171875 -21.875 L 12.171875 0 L 5.578125 0 L 5.578125 -39.6875 L 12.171875 -39.6875 L 12.171875 -33.96875 C 13.472656 -36.039062 15.222656 -37.628906 17.421875 -38.734375 C 19.617188 -39.847656 22.046875 -40.40625 24.703125 -40.40625 C 28.023438 -40.40625 30.96875 -39.65625 33.53125 -38.15625 C 36.09375 -36.664062 38 -34.472656 39.25 -31.578125 C 40.363281 -34.378906 42.195312 -36.550781 44.75 -38.09375 C 47.3125 -39.632812 50.160156 -40.40625 53.296875 -40.40625 Z M 53.296875 -40.40625 "/></g></g></g></svg>