<svg xmlns="http://www.w3.org/2000/svg" xmlns:xlink="http://www.w3.org/1999/xlink" width="512" zoomAndPan="magnify" viewBox="0 0 384 383.999986" height="512" preserveAspectRatio="xMidYMid meet" version="1.0"><defs><g/></defs><rect x="-38.4" width="460.8" fill="#ffffff" y="-38.399999" height="460.799983" fill-opacity="1"/><rect x="-38.4" width="460.8" fill="#ffe8d5" y="-38.399999" height="460.799983" fill-opacity="1"/><g fill="#2a2a2a" fill-opacity="1"><g transform="translate(61.270433, 278.489503)"><g><path d="M 92.875 -36.109375 L 92.875 0 L 71.203125 0 C 55.765625 0 43.726562 -3.773438 35.09375 -11.328125 C 26.46875 -18.878906 22.15625 -31.203125 22.15625 -48.296875 L 22.15625 -103.578125 L 5.234375 -103.578125 L 5.234375 -138.9375 L 22.15625 -138.9375 L 22.15625 -172.796875 L 64.734375 -172.796875 L 64.734375 -138.9375 L 92.625 -138.9375 L 92.625 -103.578125 L 64.734375 -103.578125 L 64.734375 -47.8125 C 64.734375 -43.65625 65.726562 -40.664062 67.71875 -38.84375 C 69.71875 -37.019531 73.039062 -36.109375 77.6875 -36.109375 Z M 92.875 -36.109375 "/></g></g></g><g fill="#2a2a2a" fill-opacity="1"><g transform="translate(153.645299, 278.489503)"><g><path d="M 58.015625 -119.265625 C 61.992188 -125.734375 67.71875 -130.957031 75.1875 -134.9375 C 82.65625 -138.925781 91.207031 -140.921875 100.84375 -140.921875 C 112.289062 -140.921875 122.660156 -138.015625 131.953125 -132.203125 C 141.253906 -126.398438 148.601562 -118.101562 154 -107.3125 C 159.394531 -96.519531 162.09375 -83.988281 162.09375 -69.71875 C 162.09375 -55.4375 159.394531 -42.859375 154 -31.984375 C 148.601562 -21.117188 141.253906 -12.738281 131.953125 -6.84375 C 122.660156 -0.957031 112.289062 1.984375 100.84375 1.984375 C 91.050781 1.984375 82.5 0.0351562 75.1875 -3.859375 C 67.882812 -7.753906 62.160156 -12.941406 58.015625 -19.421875 L 58.015625 0 L 15.4375 0 L 15.4375 -184.25 L 58.015625 -184.25 Z M 118.765625 -69.71875 C 118.765625 -80.34375 115.816406 -88.679688 109.921875 -94.734375 C 104.035156 -100.796875 96.773438 -103.828125 88.140625 -103.828125 C 79.671875 -103.828125 72.488281 -100.753906 66.59375 -94.609375 C 60.707031 -88.472656 57.765625 -80.09375 57.765625 -69.46875 C 57.765625 -58.84375 60.707031 -50.457031 66.59375 -44.3125 C 72.488281 -38.175781 79.671875 -35.109375 88.140625 -35.109375 C 96.609375 -35.109375 103.828125 -38.21875 109.796875 -44.4375 C 115.773438 -50.664062 118.765625 -59.09375 118.765625 -69.71875 Z M 118.765625 -69.71875 "/></g></g></g></svg>