<?xml version="1.0" encoding="UTF-8"?>
<svg width="24px" height="24px" viewBox="0 0 24 24" version="1.1" xmlns="http://www.w3.org/2000/svg">
    <g stroke="none" stroke-width="1" fill="none" fill-rule="evenodd">
        <path d="M14,2 L6,2 C4.9,2 4,2.9 4,4 L4,20 C4,21.1 4.9,22 6,22 L18,22 C19.1,22 20,21.1 20,20 L20,8 L14,2 Z" fill="#E5E7EB"/>
        <path d="M14,2 L14,8 L20,8 L14,2 Z" fill="#D1D5DB"/>
        <path d="M16,13 L8,13 L8,11 L16,11 L16,13 Z M16,17 L8,17 L8,15 L16,15 L16,17 Z" fill="#9CA3AF"/>
    </g>
</svg> 