<?xml version="1.0" encoding="UTF-8"?>
<svg width="32px" height="32px" viewBox="0 0 32 32" version="1.1" xmlns="http://www.w3.org/2000/svg">
  <title>TimeBride Favicon</title>
  <g stroke="none" stroke-width="1" fill="none" fill-rule="evenodd">
    <circle fill="#30A3F8" cx="16" cy="16" r="16"></circle>
    <path d="M16,5 C21.5228475,5 26,9.4771525 26,15 C26,20.5228475 21.5228475,25 16,25 C10.4771525,25 6,20.5228475 6,15 C6,9.4771525 10.4771525,5 16,5 Z M16,7 C11.581722,7 8,10.581722 8,15 C8,19.418278 11.581722,23 16,23 C20.418278,23 24,19.418278 24,15 C24,10.581722 20.418278,7 16,7 Z" fill="#FFFFFF"></path>
    <rect fill="#FFFFFF" x="15" y="9" width="2" height="6" rx="1"></rect>
    <rect fill="#FFFFFF" x="15" y="15" width="7" height="2" rx="1"></rect>
  </g>
</svg> 